<?xml version="1.0" encoding="UTF-8" standalone="no"?>
<svg
   xmlns:dc="http://purl.org/dc/elements/1.1/"
   xmlns:cc="http://creativecommons.org/ns#"
   xmlns:rdf="http://www.w3.org/1999/02/22-rdf-syntax-ns#"
   xmlns:svg="http://www.w3.org/2000/svg"
   xmlns="http://www.w3.org/2000/svg"
   xmlns:sodipodi="http://sodipodi.sourceforge.net/DTD/sodipodi-0.dtd"
   xmlns:inkscape="http://www.inkscape.org/namespaces/inkscape"
   version="1.1"
   id="svg2"
   xml:space="preserve"
   width="1063.382"
   height="200"
   viewBox="0 0 1063.382 199.99999"
   sodipodi:docname="Delta_logo.svg"
   inkscape:version="1.0.1 (3bc2e813f5, 2020-09-07)"><metadata
     id="metadata8"><rdf:RDF><cc:Work
         rdf:about=""><dc:format>image/svg+xml</dc:format><dc:type
           rdf:resource="http://purl.org/dc/dcmitype/StillImage" /><dc:title></dc:title></cc:Work></rdf:RDF></metadata><defs
     id="defs6" /><sodipodi:namedview
     pagecolor="#ffffff"
     bordercolor="#666666"
     borderopacity="1"
     objecttolerance="10"
     gridtolerance="10"
     guidetolerance="10"
     inkscape:pageopacity="0"
     inkscape:pageshadow="2"
     inkscape:window-width="1360"
     inkscape:window-height="706"
     id="namedview4"
     inkscape:document-rotation="0"
     showgrid="false"
     inkscape:zoom="0.75"
     inkscape:cx="485.02133"
     inkscape:cy="175.68"
     inkscape:window-x="-8"
     inkscape:window-y="-8"
     inkscape:window-maximized="1"
     inkscape:current-layer="g10" /><g
     id="g10"
     inkscape:groupmode="layer"
     inkscape:label="ink_ext_XXXXXX"
     transform="matrix(1.3333333,0,0,-1.3333333,0,351.36)"><path
       d="M 98.943932,177.24983 186.62022,132.18127 98.591686,263.52001 9.8593016,131.48119 98.943932,177.24983"
       style="fill:#3b4095;fill-opacity:1;fill-rule:nonzero;stroke:none;stroke-width:0.110769"
       id="path14" /><path
       d="M 99.296177,159.64532 0,119.85709 h 196.83646 l -97.540283,39.78823"
       style="fill:#b01842;fill-opacity:1;fill-rule:nonzero;stroke:none;stroke-width:0.110769"
       id="path16" /><path
       d="m 192.60618,133.94137 c 0,-4.9292 3.52136,-8.45056 8.09832,-8.45056 4.57808,0 8.0983,3.52136 8.0983,8.45056 0,4.58251 -3.52022,7.74606 -8.0983,7.74606 -4.57696,0 -8.09832,-3.16355 -8.09832,-7.74606 m 8.09832,-10.21068 c -5.28148,0 -10.21069,4.57696 -10.21069,10.21068 0,5.63372 4.92921,9.50731 10.21069,9.50731 5.28146,0 9.85954,-3.87359 9.85954,-9.50731 0,-5.63372 -4.57808,-10.21068 -9.85954,-10.21068"
       style="fill:#3b4095;fill-opacity:1;fill-rule:nonzero;stroke:none;stroke-width:0.110769"
       id="path18" /><path
       d="m 198.59212,134.64587 h 1.76123 c 1.76013,0 2.81575,0 2.81575,1.40788 0,1.76121 -1.05562,1.76121 -2.4646,1.76121 h -2.11238 v -3.16909 m 0,-1.76124 v -4.57698 h -1.75566 v 11.26744 h 4.57252 c 2.8213,0 3.8736,-1.05121 3.8736,-3.52134 0,-1.76125 -1.0523,-2.46462 -2.81684,-3.16912 l 3.16907,-4.57698 h -2.11345 l -3.16801,4.57698 h -1.76123"
       style="fill:#3b4095;fill-opacity:1;fill-rule:nonzero;stroke:none;stroke-width:0.110769"
       id="path20" /><path
       d="M 285.21125,252.24815 265.49326,143.44868 c -0.70448,-4.9248 -1.40787,-8.09943 -1.40787,-9.85955 0,-9.85844 5.6337,-12.67641 22.18258,-12.67641 46.47866,0 76.40845,29.57755 76.40845,73.94272 0,36.26576 -22.1826,58.0961 -60.91518,58.0961 -3.52134,0 -8.80282,-0.35113 -16.54999,-0.70339 m -58.79729,-138.72814 1.05121,5.98484 h 3.8736 c 10.21068,0 13.02754,5.6337 15.49214,18.66124 l 17.95787,97.18095 c 0.70448,4.57696 0.70448,7.39382 0.70448,8.45057 0,8.0983 -4.9292,11.2674 -14.78876,11.2674 h -1.05675 l 1.05675,5.98596 c 10.21179,-0.35224 18.66235,-1.40899 24.64831,-1.40899 10.56403,0 20.42247,1.05675 29.22529,1.05675 49.99998,0 77.11291,-26.4029 77.11291,-66.19553 0,-24.29496 -10.56403,-46.47755 -29.92979,-61.9697 -16.90111,-13.38089 -37.67585,-19.01349 -64.78875,-19.01349 -14.43652,0 -26.05618,0.35113 -33.80337,0.35113 -8.09832,0 -16.90111,0 -26.75514,-0.35113"
       style="fill:#3b4095;fill-opacity:1;fill-rule:nonzero;stroke:none;stroke-width:0.110769"
       id="path22" /><path
       d="m 365.84552,113.52001 h 103.52134 l 5.63372,32.74993 h -6.33822 c -6.68932,-18.31453 -15.49214,-24.65161 -34.50673,-24.65161 h -16.19664 c -12.32417,0 -15.84551,3.17353 -15.84551,13.02754 0,1.05562 0.35113,2.81686 0.70448,5.28035 l 8.80282,46.8309 h 21.12586 c 16.19775,0 21.47922,-2.4646 21.47922,-12.67639 0,-1.05563 -0.35116,-2.81575 -0.35116,-4.92922 h 6.3371 l 8.45056,41.90057 h -5.98485 c -4.22583,-15.49327 -10.21179,-16.19664 -26.40954,-16.19664 h -23.23822 l 10.56296,58.44834 h 29.92864 c 14.0854,0 19.01461,-3.52023 19.01461,-18.66124 0,-2.11236 0,-3.87247 -0.35224,-6.33709 h 6.33819 l 5.28146,32.39328 c -29.92867,-0.35224 -49.99998,-1.05675 -60.56294,-1.05675 -6.69041,0 -18.31009,0.70451 -34.1556,1.05675 l -1.40786,-5.63372 h 1.40786 c 9.85955,0 14.78989,-3.1691 14.78989,-11.2674 0,-1.05675 0,-3.87361 -1.05676,-8.45057 l -17.95785,-97.18095 c -2.11235,-12.32302 -4.22584,-16.54776 -17.60562,-18.66124 l -1.40897,-5.98484"
       style="fill:#3b4095;fill-opacity:1;fill-rule:nonzero;stroke:none;stroke-width:0.110769"
       id="path24" /><path
       d="m 588.73371,149.08129 c -7.74717,-20.42138 -15.84549,-27.46296 -35.91573,-27.46296 h -20.77473 c -11.61965,0 -15.49214,3.17353 -15.49214,12.67417 0,1.40899 0,3.17023 0.35115,5.63372 l 17.60561,92.25172 c 2.81686,16.90666 6.3382,22.88707 18.66235,22.88707 h 3.52136 v 5.98596 c -11.97192,-0.70448 -20.77471,-1.40899 -26.0573,-1.40899 -7.39383,0 -16.54888,0.70451 -27.46517,1.40899 l -1.05563,-5.98596 h 1.76013 c 9.86064,0 14.43653,-3.52133 14.43653,-11.2674 0,-1.05675 -0.7034,-3.87361 -1.40788,-8.45057 l -17.95787,-97.18095 c -1.76013,-12.32302 -3.87247,-16.54776 -17.60562,-18.66124 l -1.05675,-5.98484 h 109.50842 l 5.28035,35.56128 h -6.33708"
       style="fill:#3b4095;fill-opacity:1;fill-rule:nonzero;stroke:none;stroke-width:0.110769"
       id="path26" /><path
       d="m 751.76125,238.1639 c -12.6753,-18.65682 -24.6472,-37.3225 -36.61911,-55.98376 h 42.25392 c -1.40897,18.66126 -3.1691,36.97026 -5.63481,55.98376 M 647.18427,119.50485 c 11.97191,0.35224 16.54998,6.69046 23.23933,15.8444 15.8444,21.12697 46.12641,64.08315 90.84495,128.17076 h 6.33821 c 5.63368,-67.60894 9.85953,-111.26962 12.67639,-131.68656 1.05563,-9.1595 3.87249,-12.3286 12.32305,-12.3286 h 4.93033 l -0.70339,-5.98484 h -51.76123 l 1.05564,5.98484 h 3.17019 c 9.15395,0 11.61968,1.05674 11.61968,7.39494 0,4.22472 -0.35224,8.44946 -0.35224,13.02643 0,1.76121 -1.05676,13.38531 -2.46573,34.15451 h -47.88653 c -18.66237,-27.45962 -29.22529,-42.95622 -29.22529,-48.23766 0,-4.93035 5.28037,-6.33822 16.19664,-6.33822 l -1.05563,-5.98484 c -12.32415,0 -19.71908,0.35113 -23.24042,0.35113 -5.98598,0 -14.78766,-0.35113 -26.05619,-0.35113 -12.67639,0.35113 -21.47921,0.35113 -24.6472,0.35113 -7.74719,0 -16.90224,0 -26.76069,-0.35113 l 1.75904,5.98484 h 3.52244 c 10.21068,0 12.32303,5.6337 15.13989,18.66124 l 20.77584,115.13769 H 620.4236 c -19.71798,0 -29.22527,-6.33707 -34.50675,-28.16742 h -5.98705 l 4.93031,35.56237 h 121.83147 l -5.98596,-35.56237 h -5.98595 c 0.35224,5.63371 0.70449,9.50618 0.70449,11.2663 0,14.08428 -6.69045,16.90112 -19.36573,16.90112 H 654.22696 L 633.80449,139.92622 c -1.40898,-4.92811 -1.40898,-8.09277 -1.40898,-9.50619 0,-8.09832 3.1691,-10.91518 11.61966,-10.91518 h 3.1691"
       style="fill:#3b4095;fill-opacity:1;fill-rule:nonzero;stroke:none;stroke-width:0.110769"
       id="path28" /></g></svg>
